# xmcd
#
# Track frame offsets:
#	150
#	14129
#	32968
#	49631
#	70046
#	96697
#	116068
#	136323
#	159004
#	175145
#	194820
#	215497
#	235026
#
# Disc length: 3352 seconds
#
# Revision: 0
# Processed by: cddbd v1.5.2PL0 Copyright (c) Steve Scherf et al.
# Submitted via: EZCDAudioConverter 7.1.0.1
#
DISCID=bc0d160d
DTITLE=群星 - 唱世纪Ⅰ 滚石辉煌30周年 CD1 - 天作之合1／深情相拥
DYEAR=2002
DGENRE=
TTITLE0=莫文蔚／苏慧伦 - 失恋万岁
TTITLE1=林忆莲／齐豫／杜莉莎／刘美君 - I Swear
TTITLE2=林忆莲／杜德伟 - You Don't Bring Me Flowers
TTITLE3=任贤齐／小虫 - 爱怎么会是这样
TTITLE4=张艾嘉／梁家辉 - 想逃
TTITLE5=李淑桦／李宗盛 - 你走你的路
TTITLE6=成龙／苏慧伦 - 在我生命中的每一天
TTITLE7=蔡琴／万芳 - 答案
TTITLE8=张国荣／辛晓琪 - 深情相拥
TTITLE9=辛晓琪／周华健 - 每个爱情都危险
TTITLE10=李雨寰／苏娅／杨乃文 - 爱上你只是我的错
TTITLE11=陈升／潘越云 - 结束
TTITLE12=潘越云／齐豫 - 轨外
EXTD=
EXTT0=
EXTT1=
EXTT2=
EXTT3=
EXTT4=
EXTT5=
EXTT6=
EXTT7=
EXTT8=
EXTT9=
EXTT10=
EXTT11=
EXTT12=
PLAYORDER=
